<?xml version="1.0" encoding="utf-8"?>
<svg xmlns="http://www.w3.org/2000/svg" viewBox="0 0 20 20">
  <path d="M16,14.8h-0.8c-0.1-2.6-0.7-3.3-3.2-4.9c2.5-1.6,3.1-2.4,3.2-4.8H16c0.4,0,0.7-0.3,0.7-0.7c0-0.4-0.3-0.7-0.7-0.7H5C4.6,3.7,4.3,4,4.3,4.4c0,0.4,0.3,0.7,0.7,0.7h0.8C5.9,7.6,6.5,8.4,9,10c-2.5,1.5-3.1,2.3-3.2,4.9H5c-0.4,0-0.7,0.3-0.7,0.7c0,0.4,0.3,0.7,0.7,0.7H16c0.4,0,0.7-0.3,0.7-0.7C16.7,15.2,16.4,14.8,16,14.8zM7.3,5.2h6.3c-0.1,1.9-0.4,2.3-3.1,4C7.8,7.5,7.4,7.1,7.3,5.2z M10.5,10.9c2.8,1.7,3.1,2,3.2,4H7.3C7.4,12.8,7.7,12.5,10.5,10.9z" fill="#333333"/>
</svg>