<?xml version="1.0" encoding="utf-8"?>
<svg xmlns="http://www.w3.org/2000/svg" viewBox="0 0 50 50" fill="#000000"><path d="M 29.978516 2 A 1.0001 1.0001 0 0 0 29.173828 2.4375 L 12.173828 27.4375 A 1.0001 1.0001 0 0 0 13 29 L 21.767578 29 L 18.021484 46.794922 A 1.0001 1.0001 0 0 0 19.841797 47.539062 L 35.841797 22.539062 A 1.0001 1.0001 0 0 0 35 21 L 27.232422 21 L 30.978516 3.2050781 A 1.0001 1.0001 0 0 0 29.978516 2 z M 27.978516 7.75 L 25.021484 21.794922 A 1.0001 1.0001 0 0 0 26 23 L 33.173828 23 L 21.103516 41.857422 L 23.978516 28.205078 A 1.0001 1.0001 0 0 0 23 27 L 14.888672 27 L 27.978516 7.75 z" fill="#000000"/></svg>
