<?xml version="1.0" encoding="utf-8"?>
<svg xmlns="http://www.w3.org/2000/svg" viewBox="0 0 50 50" fill="#000000"><path d="M 7 7 C 5.346 7 4 8.346 4 10 L 4 40 C 4 41.654 5.346 43 7 43 L 26.267578 43 C 25.817578 42.375 25.425563 41.707 25.101562 41 L 7 41 C 6.448 41 6 40.551 6 40 L 6 15 L 44 15 L 44 27.074219 C 44.758 27.754219 45.435 28.520094 46 29.371094 L 46 10 C 46 8.346 44.654 7 43 7 L 7 7 z M 7 9 L 43 9 C 43.552 9 44 9.449 44 10 L 44 13 L 6 13 L 6 10 C 6 9.449 6.448 9 7 9 z M 8 10 A 1 1 0 0 0 7 11 A 1 1 0 0 0 8 12 A 1 1 0 0 0 9 11 A 1 1 0 0 0 8 10 z M 11 10 A 1 1 0 0 0 10 11 A 1 1 0 0 0 11 12 A 1 1 0 0 0 12 11 A 1 1 0 0 0 11 10 z M 14 10 A 1 1 0 0 0 13 11 A 1 1 0 0 0 14 12 A 1 1 0 0 0 15 11 A 1 1 0 0 0 14 10 z M 36 26 C 30.488997 26 26 30.488997 26 36 C 26 41.511003 30.488997 46 36 46 C 38.396508 46 40.597385 45.148986 42.322266 43.736328 L 48.292969 49.707031 L 49.707031 48.292969 L 43.736328 42.322266 C 45.148986 40.597385 46 38.396508 46 36 C 46 30.488997 41.511003 26 36 26 z M 36 28 C 40.430123 28 44 31.569877 44 36 C 44 40.430123 40.430123 44 36 44 C 31.569877 44 28 40.430123 28 36 C 28 31.569877 31.569877 28 36 28 z" fill="#000000"/></svg>
