<?xml version="1.0" encoding="utf-8"?>
<svg xmlns="http://www.w3.org/2000/svg" viewBox="0 0 50 50" fill="#000000"><path d="M 9.9003906 0.48632812 L 0.48632812 9.9003906 L 16.853516 26.267578 L 4.2929688 38.791016 A 1.0001 1.0001 0 0 0 4.0332031 39.242188 L 2.0332031 46.742188 A 1.0001 1.0001 0 0 0 3.2578125 47.966797 L 10.757812 45.966797 A 1.0001 1.0001 0 0 0 11.208984 45.707031 L 45.708984 11.105469 L 45.701172 11.097656 L 46.5 10.300781 C 48.4 8.4007812 48.4 5.3003906 46.5 3.4003906 C 44.6 1.5003906 41.499609 1.5003906 39.599609 3.4003906 L 38.800781 4.1992188 L 38.892578 4.2929688 L 26.28125 16.867188 L 9.9003906 0.48632812 z M 9.9003906 3.3144531 L 12.585938 6 L 11.292969 7.2929688 L 12.707031 8.7070312 L 14 7.4140625 L 15.585938 9 L 13.292969 11.292969 L 14.707031 12.707031 L 17 10.414062 L 18.585938 12 L 17.292969 13.292969 L 18.707031 14.707031 L 20 13.414062 L 21.585938 15 L 19.292969 17.292969 L 20.707031 18.707031 L 23 16.414062 L 24.865234 18.279297 L 18.269531 24.855469 L 3.3144531 9.9003906 L 9.9003906 3.3144531 z M 39.40625 4.8046875 L 44.824219 10.224609 L 44.291016 9.6933594 L 9.9921875 44.09375 L 5.90625 40.007812 L 40.306641 5.7089844 L 39.40625 4.8046875 z M 34.607422 25.193359 L 33.193359 26.607422 L 33.585938 27 L 31.292969 29.292969 L 32.707031 30.707031 L 35 28.414062 L 36.585938 30 L 35.292969 31.292969 L 36.707031 32.707031 L 38 31.414062 L 39.486328 32.900391 L 37.193359 35.193359 L 38.607422 36.607422 L 40.900391 34.314453 L 42.486328 35.900391 L 41.193359 37.193359 L 42.607422 38.607422 L 43.900391 37.314453 L 46.685547 40.099609 L 40.099609 46.685547 L 26.607422 33.193359 L 25.193359 34.607422 L 40.099609 49.513672 L 49.513672 40.099609 L 34.607422 25.193359 z" fill="#000000"/></svg>
