<svg width="280" height="280" viewBox="0 0 280 280" fill="none" xmlns="http://www.w3.org/2000/svg">
<path fill-rule="evenodd" clip-rule="evenodd" d="M38.5449 14.2058C37.1687 16.1704 37 28.8196 37 130.226V244.042L39.6146 246.098C41.7558 247.783 43.6401 248.155 50.0332 248.155H57.8372V256.435C57.8372 263.198 58.1696 265.017 59.652 266.358C61.3121 267.86 69.0724 268 150.882 268H240.299L241.843 265.794C243.219 263.83 243.388 251.18 243.388 149.774V35.9578L240.773 33.9019C238.632 32.2171 236.747 31.845 230.354 31.845H222.55V23.5647C222.55 16.8025 222.218 14.9827 220.736 13.6422C219.076 12.1399 211.315 12 129.505 12H40.0889L38.5449 14.2058ZM210.896 129.873C211.138 235.615 211.126 236.338 209.155 236.813C208.064 237.076 171.673 237.168 128.287 237.017L49.4031 236.744L49.1511 129.824L48.898 22.9028L129.775 23.1568L210.653 23.4109L210.896 129.873ZM231.481 150.425V257.097L150.477 256.843L69.4743 256.589L69.3612 252.371L69.2481 248.153L143.915 248.154C217.259 248.155 218.616 248.12 220.566 246.171C222.525 244.212 222.55 242.863 222.55 143.969V43.7519H227.015H231.481V150.425ZM117.115 67.9787C113.973 69.2706 109.665 71.8276 107.544 73.6603C105.422 75.493 102.273 79.5622 100.547 82.7026C98.6603 86.1318 97.3307 90.0602 97.2185 92.5368L97.031 96.6606L101.992 97.9704C104.721 98.6907 107.968 99.2881 109.207 99.299C110.758 99.3119 111.791 98.4665 112.517 96.5891C113.097 95.0879 114.491 91.9603 115.614 89.6375C116.797 87.1896 119.16 84.4798 121.234 83.1928C123.901 81.5387 126.332 80.9731 130.767 80.9722C134.93 80.9712 137.735 81.5665 140.09 82.9507C141.943 84.0392 144.37 86.1517 145.483 87.646C146.796 89.4073 147.655 92.3939 147.925 96.1506C148.27 100.901 147.899 102.817 145.858 106.831C144.49 109.52 142.098 113.365 140.542 115.374C138.986 117.384 134.987 122.742 131.655 127.281C128.324 131.821 124.846 136.997 123.927 138.784C122.654 141.261 122.325 144.093 122.543 150.691L122.829 159.349L129.751 159.647C135.413 159.892 136.903 159.632 137.937 158.218C138.633 157.267 139.202 154.104 139.202 151.19C139.202 148.274 139.833 144.453 140.603 142.697C141.374 140.941 146.06 133.922 151.017 127.101C155.974 120.279 160.946 112.28 162.066 109.324C163.393 105.823 164.111 101.555 164.125 97.0843C164.138 92.9327 163.433 88.1947 162.341 85.0949C161.168 81.765 158.792 78.2038 155.561 74.9304C151.776 71.0963 149.061 69.3757 144.205 67.7366C139.842 66.2631 135.454 65.5893 130.327 65.6052C124.751 65.6221 121.365 66.2313 117.115 67.9787ZM121.765 174.063C121.487 174.788 121.389 179.365 121.548 184.233L121.837 193.085H130.767H139.698L139.985 183.742C140.195 176.935 139.925 174.178 138.993 173.587C138.289 173.14 134.238 172.768 129.992 172.759C124.475 172.748 122.127 173.12 121.765 174.063Z" fill="#37352F"/>
</svg>
