<svg xmlns="http://www.w3.org/2000/svg" viewBox="0 0 20 20" fill="#55534E"><path d="M10 2.5c-4.14 0-7.5 3.36-7.5 7.5a7.502 7.502 0 0 0 11.66 6.24l-1.041-1.559a5.6 5.6 0 0 1-3.119.947 5.625 5.625 0 1 1 5.625-5.625c0 .931-.331 1.563-1.094 1.563-.665 0-1.094-.429-1.094-1.094V6.878h-1.874v.44c-.535-.477-1.232-.752-2.032-.752-1.825 0-3.281 1.43-3.281 3.437s1.456 3.438 3.281 3.438c1.072 0 1.96-.497 2.513-1.31.522.8 1.422 1.31 2.487 1.31 1.766 0 2.969-1.094 2.969-3.438 0-4.14-3.36-7.5-7.5-7.5zm-.312 9.063c-.913 0-1.563-.65-1.563-1.563s.65-1.562 1.563-1.562 1.562.65 1.562 1.562-.65 1.563-1.562 1.563" fill="#55534E"></path></svg>